<svg xmlns="http://www.w3.org/2000/svg" viewBox="0 0 750.07 20.23"><defs><style>.cls-1{fill:#4d4547;}.cls-2{fill:none;stroke:#4d4547;stroke-miterlimit:10;stroke-width:2px;}</style></defs><g id="Layer_2" data-name="Layer 2"><g id="Layer_1-2" data-name="Layer 1"><line class="cls-1" x1="750.07" y1="10.11" y2="10.11"/><line class="cls-2" x1="750.07" y1="10.11" x2="8.92" y2="10.11"/><path class="cls-1" d="M10.52,20.23A31,31,0,0,0,0,10.11,32.17,32.17,0,0,0,10.52,0H13A35,35,0,0,1,3.36,10.11a35.69,35.69,0,0,1,9.7,10.12Z"/><path class="cls-1" d="M16.54,20.23A31.16,31.16,0,0,0,6,10.11,32.17,32.17,0,0,0,16.54,0H19A35,35,0,0,1,9.38,10.11a35.69,35.69,0,0,1,9.7,10.12Z"/></g></g></svg>