<svg xmlns="http://www.w3.org/2000/svg" viewBox="0 0 1360.89 120.55"><defs><style>.cls-1{fill:#861639;}.cls-2{fill:#4d4547;}.cls-3{fill:none;stroke:#4d4547;stroke-miterlimit:10;stroke-width:4px;}</style></defs><g id="Layer_2" data-name="Layer 2"><g id="Layer_1-2" data-name="Layer 1"><path class="cls-1" d="M14.18,34.66c0,.41-.58.74-1.32.74C6.8,35.4,0,30.32,0,21.39,0,9.26,10.9,0,27.53,0,36.63,0,45,3.44,52.36,8.28A13.14,13.14,0,0,1,55,5.65a1,1,0,0,1,1.07.91c0,.08-.82,1.06-2.13,2.7L56.29,11a.93.93,0,0,1,.49.66,1,1,0,0,1-.73.81A2.23,2.23,0,0,1,55,12c-.74-.41-1.39-.9-2.13-1.39-6.8,8.77-22.2,30.24-22.2,48.75,0,7.54,3.19,11.89,10.07,11.89,14.18,0,31.06-29.59,31.06-29.59s6.64-22.2,9.67-22.2A1.38,1.38,0,0,1,82.84,21c0,4.09-8,20.07-8,20.07a52,52,0,0,0-.9,9.42c0,6.89,1.64,15,9.92,15,13,0,30.07-27.86,30.07-49.16A31.55,31.55,0,0,0,110.37.74.54.54,0,0,1,111,.25c.49,0,6.14,4.67,6.14,16.06,0,21.22-18.35,51.7-32.86,51.7-11.39,0-13-10.41-13-16.47a32.59,32.59,0,0,1,.32-4.75S56.21,74,40.56,74c-8.44,0-12.86-5.82-12.86-14.5,0-19.75,16-41.22,23.51-49.9-7-4.1-14.83-7.21-23-7.21C12.05,2.38,2.87,11,2.87,21.55c0,7.78,5.73,12.54,10.4,12.54C14,34.09,14.18,34.42,14.18,34.66Z"/><path class="cls-1" d="M138.22,53.67c-2.45,0-4.17-1.39-4.17-3.77,0-5.16,7.7-10.08,7.7-13.27,0-.82-.58-.9-.82-.9-3.61,0-17.86,11.14-24.58,18.35-.82.9-1.15,1.48-2.38,1.48a1.44,1.44,0,0,1-1.39-1.4c0-.82,3.85-8.93,7.13-15.24,7.86-15.08,17.61-28.92,26-28.92A4,4,0,0,1,150,14c0,7.13-19.09,21.88-29.49,30a61.7,61.7,0,0,0-3.69,6.64c6.23-6.47,20-17.45,24.5-17.45a3.15,3.15,0,0,1,3.28,3.44c0,4.26-7.71,9.42-7.71,13.19,0,1,.41,1.56,1.89,1.56C144.62,51.38,151,44,151,44s.41-.49.82-.49a1,1,0,0,1,.9.9,1.82,1.82,0,0,1-.41.82S144.7,53.67,138.22,53.67ZM122,40.15c8.44-6.64,25.57-20.4,25.57-26.38,0-.82-.5-1.48-1.72-1.48C139.78,12.29,130.11,24.5,122,40.15Z"/><path class="cls-1" d="M157.72,55.64c-4.42,0-8-2.63-8-7.3,0-7.62,10.25-15.89,16.56-15.89,2.54,0,4.26,1.47,4.26,3.52,0,4.92-11,9.42-17.78,11.15a4.35,4.35,0,0,0-.17,1.47c0,2.87,2.13,4.67,5.16,4.67,9.84,0,17.37-9.26,17.37-9.26s.41-.49.82-.49a1,1,0,0,1,.91.9,1.82,1.82,0,0,1-.41.82S167.23,55.64,157.72,55.64Zm-4.26-10.9c6.23-1.64,14.59-5.57,14.59-9,0-.25-.25-1-1.48-1C162.07,34.74,155.84,39.66,153.46,44.74Z"/><path class="cls-1" d="M191.07,35.4c.9.41,1.48.9,1.48,1.72,0,3.52-7.13,8.6-7.13,13.35a2,2,0,0,0,2.21,2.13c3.85,0,8.6-3.85,12.86-8.6,0,0,.41-.49.82-.49a1.05,1.05,0,0,1,.91.9,1.82,1.82,0,0,1-.41.82c-4.59,5-10.33,9.51-14.67,9.51-2.46,0-4.43-1.56-4.43-4.1,0-5.08,6.64-10,6.64-12.87,0-.41-.41-.73-1-1.14-1.72-1.23-2.71-1.89-3.2-1.89-.33,0-.57.25-1.06.9-1.23,1.72-4.67,6.15-7.71,9.59a1.43,1.43,0,0,1-.82.41,1,1,0,0,1-.9-.82,1.82,1.82,0,0,1,.41-.82,82.2,82.2,0,0,0,8.53-11.8c1-2,2.37-7.21,4.42-7.21a2.18,2.18,0,0,1,1.8,1.72c0,1.23-3.52,4.18-3.52,5.41C186.32,32.61,189.43,34.5,191.07,35.4Z"/><path class="cls-1" d="M207.29,55.64c-4.42,0-8-2.63-8-7.3,0-7.62,10.25-15.89,16.56-15.89,2.54,0,4.26,1.47,4.26,3.52,0,4.92-11,9.42-17.78,11.15a4.35,4.35,0,0,0-.17,1.47c0,2.87,2.13,4.67,5.16,4.67,9.84,0,17.38-9.26,17.38-9.26s.41-.49.81-.49a1,1,0,0,1,.91.9,1.82,1.82,0,0,1-.41.82S216.8,55.64,207.29,55.64ZM203,44.74c6.23-1.64,14.59-5.57,14.59-9,0-.25-.25-1-1.48-1C211.64,34.74,205.41,39.66,203,44.74Z"/><path class="cls-1" d="M261.45,53.67c-2.7,0-4.58-1.64-4.58-4,0-4.92,7.86-10.08,7.86-13.69a1.15,1.15,0,0,0-1.31-1.06c-5.24,0-15.81,8.35-24.42,18.43a2,2,0,0,1-1.8,1,1.34,1.34,0,0,1-1.31-1.23c0-.66,1-2.63,2.7-5.58,3.12-5.32,9.51-14.25,10.82-14.25a1.35,1.35,0,0,1,1.39,1.31c0,.24-.24.57-.82,1.23a84.57,84.57,0,0,0-8.68,11.8c6.63-7.21,16.88-15.16,22.61-15.16A3.61,3.61,0,0,1,267.68,36c0,4.51-7.7,9.67-7.7,13.44,0,1.23.74,1.88,2.21,1.88,6.31,0,12.29-7.29,12.29-7.29s.41-.49.74-.49a1,1,0,0,1,1,.9,1.82,1.82,0,0,1-.41.82S268.17,53.67,261.45,53.67Z"/><path class="cls-1" d="M281.28,55.64c-4.42,0-8-2.63-8-7.3,0-7.62,10.24-15.89,16.55-15.89,2.54,0,4.26,1.47,4.26,3.52,0,4.92-11,9.42-17.78,11.15a4.61,4.61,0,0,0-.16,1.47c0,2.87,2.13,4.67,5.16,4.67,9.83,0,17.37-9.26,17.37-9.26s.41-.49.82-.49a1,1,0,0,1,.9.9,1.82,1.82,0,0,1-.41.82S290.79,55.64,281.28,55.64ZM277,44.74c6.23-1.64,14.58-5.57,14.58-9,0-.25-.24-1-1.47-1C285.62,34.74,279.4,39.66,277,44.74Z"/><path class="cls-1" d="M301.68,55.06c-2.87,0-5-1.88-5-4.67,0-7.86,10.74-19.91,13.52-19.91a1.32,1.32,0,0,1,1.23,1.31.89.89,0,0,1-.49.74c-2.95,2-11.14,10.73-11.14,17.54,0,2,.82,2.62,2.13,2.62,2.54,0,7-3.53,11.06-8.2,4.26-4.91,6.06-8,6.8-8A1.46,1.46,0,0,1,321.18,38c0,.74-3.6,4.34-3.6,8.28,0,2.54,1.39,3.6,3.36,3.6a7,7,0,0,0,4.34-2,2.28,2.28,0,0,1-.08-.73,2.7,2.7,0,0,1,2.37-2.3h.25a14.71,14.71,0,0,0,2.54-8,8.14,8.14,0,0,0-.65-3.11.7.7,0,0,1,.65-.66c.66,0,2.7,1.64,2.7,4.43a16.34,16.34,0,0,1-4.17,10.16c.41,1.15,1.72,2,3.6,2,3.2,0,6.64-1.4,10.33-5.66,0,0,.41-.49.82-.49a1.05,1.05,0,0,1,.9.9,1.82,1.82,0,0,1-.41.82c-4.1,4.51-8.2,6.47-12.05,6.47a8.26,8.26,0,0,1-5.57-1.8,10.1,10.1,0,0,1-6,2.46,5.66,5.66,0,0,1-5.9-6.31C310.29,51,304.63,55.06,301.68,55.06Z"/><path class="cls-1" d="M374.28,52.6c-3.69,3.28-8.36,5.66-12.62,5.66-2.87,0-4.43-1.39-4.43-3.2,0-4.09,8-3.68,15.49-4.18,3.19-3,5.41-6.8,5.41-10.32,0-1.48-.66-2-1.72-2-3.36,0-11,5.74-14.92,9.75-1.64,1.64-2.13,2.38-2.7,2.38a1.86,1.86,0,0,1-1.48-1.39c0-1,.91-4.26,4.1-10.41,7.87-15.24,17-29.66,25.57-29.66a4.09,4.09,0,0,1,4.34,4.18c0,6.55-18.27,20.81-27.86,28.35a23.24,23.24,0,0,0-2,3.6c3.77-3.44,11.64-9.5,15.41-9.5,2.62,0,4.17,1.72,4.17,4.42,0,3.36-1.88,7-4.67,10.16A21,21,0,0,0,387.55,44s.41-.49.82-.49a1,1,0,0,1,.9.9,1.82,1.82,0,0,1-.41.82A23.42,23.42,0,0,1,374.28,52.6Zm-3.94.33c-5.49.25-10.65.25-10.65,2,0,.58.49,1.15,2,1.15A15.89,15.89,0,0,0,370.34,52.93Zm-5.81-14.75c7.78-6.22,24.25-19.42,24.25-25a1.6,1.6,0,0,0-1.8-1.55C380.75,11.64,372.8,23.27,364.53,38.18Z"/><path class="cls-1" d="M394.35,55.64c-4.43,0-8-2.63-8-7.3,0-7.62,10.24-15.89,16.55-15.89,2.54,0,4.26,1.47,4.26,3.52,0,4.92-11,9.42-17.78,11.15a4.61,4.61,0,0,0-.16,1.47c0,2.87,2.13,4.67,5.16,4.67,9.83,0,17.37-9.26,17.37-9.26s.41-.49.82-.49a1,1,0,0,1,.9.9,1.82,1.82,0,0,1-.41.82S403.85,55.64,394.35,55.64Zm-4.26-10.9c6.23-1.64,14.58-5.57,14.58-9,0-.25-.24-1-1.47-1C398.69,34.74,392.46,39.66,390.09,44.74Z"/><path class="cls-1" d="M429.42,32.2c4.34,0,5.65,2.3,5.65,4s-1.15,2.86-1.64,2.86a.76.76,0,0,1-.82-.73,8.38,8.38,0,0,0,.41-1.89c0-.82-.57-2-3-2-7.62,0-17.7,9.34-17.7,15.81,0,1.72,1,2.37,2,2.37,2.62,0,7.62-3.68,11.8-8.11,2.38-2.54,3.44-4.67,3.93-4.67s1.31.49,1.31.9A33.1,33.1,0,0,1,430,46c-.82,2.37-1.8,5.08-2.95,8,5.57-2.87,10.65-6,14.09-10,0,0,.41-.49.74-.49a1.06,1.06,0,0,1,1,.9,1.82,1.82,0,0,1-.41.82c-4.18,4.92-12.87,10-16.64,11.88-5.82,14-15.4,30.81-27,30.81-4.91,0-8.11-3.11-8.11-7.54,0-11.3,17.86-17,33-24.66,1.56-3.52,2.79-7,3.77-9.75-4.26,4.5-9.5,8.77-13.68,8.77a4.33,4.33,0,0,1-4.43-4.67C409.42,42.44,420.81,32.2,429.42,32.2Zm-7,26.55c-14.34,7.13-29,12.62-29,21.63a5,5,0,0,0,5.32,5.25C408,85.63,416.72,71.53,422.45,58.75Z"/><path class="cls-1" d="M444.33,54a4.56,4.56,0,0,1-4.92-4.75c0-5.58,8.44-16.64,9.83-16.64a1.18,1.18,0,0,1,1.32,1.23,2.09,2.09,0,0,1-.5,1c-2,2.38-7.86,9.84-7.86,14.43a2.47,2.47,0,0,0,2.7,2.62c5.49,0,12.46-7.87,12.46-7.87s.41-.49.73-.49a1.05,1.05,0,0,1,1,.9,1.82,1.82,0,0,1-.41.82S450.64,54,444.33,54Zm14-31.3c0,1.47-1.39,3.52-2.7,3.52a1.48,1.48,0,0,1-1.56-1.47c0-1.4,1.31-3.45,2.7-3.45A1.43,1.43,0,0,1,458.34,22.7Z"/><path class="cls-1" d="M477.76,53.67c-2.7,0-4.59-1.64-4.59-4,0-4.92,7.87-10.08,7.87-13.69a1.15,1.15,0,0,0-1.31-1.06c-5.25,0-15.82,8.35-24.42,18.43a2,2,0,0,1-1.8,1,1.34,1.34,0,0,1-1.32-1.23c0-.66,1-2.63,2.71-5.58,3.11-5.32,9.5-14.25,10.81-14.25a1.35,1.35,0,0,1,1.4,1.31c0,.24-.25.57-.82,1.23a85.37,85.37,0,0,0-8.69,11.8c6.64-7.21,16.88-15.16,22.62-15.16A3.61,3.61,0,0,1,484,36c0,4.51-7.71,9.67-7.71,13.44,0,1.23.74,1.88,2.22,1.88,6.31,0,12.29-7.29,12.29-7.29s.41-.49.74-.49a1,1,0,0,1,1,.9,1.82,1.82,0,0,1-.41.82S484.48,53.67,477.76,53.67Z"/><path class="cls-1" d="M511.19,53.67c-2.71,0-4.59-1.64-4.59-4,0-4.92,7.87-10.08,7.87-13.69,0-.41-.33-1.06-1.32-1.06-5.24,0-15.81,8.35-24.41,18.43a2,2,0,0,1-1.81,1,1.34,1.34,0,0,1-1.31-1.23c0-.66,1-2.63,2.71-5.58,3.11-5.32,9.5-14.25,10.81-14.25a1.35,1.35,0,0,1,1.4,1.31c0,.24-.25.57-.82,1.23A84.56,84.56,0,0,0,491,47.61c6.64-7.21,16.88-15.16,22.62-15.16A3.61,3.61,0,0,1,517.42,36c0,4.51-7.71,9.67-7.71,13.44,0,1.23.74,1.88,2.22,1.88,6.3,0,12.29-7.29,12.29-7.29s.41-.49.73-.49a1.05,1.05,0,0,1,1,.9,1.82,1.82,0,0,1-.41.82S517.91,53.67,511.19,53.67Z"/><path class="cls-1" d="M527.41,54a4.56,4.56,0,0,1-4.92-4.75c0-5.58,8.44-16.64,9.84-16.64a1.18,1.18,0,0,1,1.31,1.23,2.09,2.09,0,0,1-.5,1c-2,2.38-7.86,9.84-7.86,14.43a2.47,2.47,0,0,0,2.7,2.62c5.49,0,12.46-7.87,12.46-7.87s.41-.49.73-.49a1.05,1.05,0,0,1,1,.9,1.82,1.82,0,0,1-.41.82S533.72,54,527.41,54Zm14-31.3c0,1.47-1.39,3.52-2.7,3.52a1.49,1.49,0,0,1-1.56-1.47c0-1.4,1.31-3.45,2.7-3.45A1.43,1.43,0,0,1,541.42,22.7Z"/><path class="cls-1" d="M560.84,53.67c-2.7,0-4.59-1.64-4.59-4,0-4.92,7.87-10.08,7.87-13.69a1.15,1.15,0,0,0-1.31-1.06c-5.25,0-15.82,8.35-24.42,18.43a2,2,0,0,1-1.8,1,1.34,1.34,0,0,1-1.32-1.23c0-.66,1-2.63,2.71-5.58,3.11-5.32,9.5-14.25,10.81-14.25a1.35,1.35,0,0,1,1.4,1.31c0,.24-.25.57-.82,1.23a85.37,85.37,0,0,0-8.69,11.8c6.64-7.21,16.88-15.16,22.62-15.16A3.61,3.61,0,0,1,567.07,36c0,4.51-7.71,9.67-7.71,13.44,0,1.23.74,1.88,2.22,1.88,6.31,0,12.29-7.29,12.29-7.29s.41-.49.74-.49a1,1,0,0,1,1,.9,1.82,1.82,0,0,1-.41.82S567.56,53.67,560.84,53.67Z"/><path class="cls-1" d="M591.56,32.2c4.35,0,5.66,2.3,5.66,4s-1.15,2.86-1.64,2.86a.76.76,0,0,1-.82-.73,8.38,8.38,0,0,0,.41-1.89c0-.82-.57-2-3-2-7.62,0-17.7,9.34-17.7,15.81,0,1.72,1,2.37,2,2.37,2.62,0,7.62-3.68,11.8-8.11,2.37-2.54,3.44-4.67,3.93-4.67s1.31.49,1.31.9A33.1,33.1,0,0,1,592.14,46c-.82,2.37-1.8,5.08-2.95,8,5.57-2.87,10.65-6,14.09-10,0,0,.41-.49.74-.49a1,1,0,0,1,1,.9,1.82,1.82,0,0,1-.41.82c-4.18,4.92-12.86,10-16.63,11.88-5.82,14-15.41,30.81-27,30.81-4.92,0-8.11-3.11-8.11-7.54,0-11.3,17.86-17,33-24.66,1.56-3.52,2.79-7,3.77-9.75-4.26,4.5-9.51,8.77-13.68,8.77a4.32,4.32,0,0,1-4.43-4.67C571.57,42.44,583,32.2,591.56,32.2Zm-7,26.55c-14.34,7.13-29,12.62-29,21.63a5,5,0,0,0,5.33,5.25C570.18,85.63,578.86,71.53,584.6,58.75Z"/><path class="cls-1" d="M614.92,50.07A18.6,18.6,0,0,0,624.5,44s.41-.49.74-.49a1,1,0,0,1,1,.9,1.82,1.82,0,0,1-.41.82A20.52,20.52,0,0,1,614.51,52a9,9,0,0,1-8.44,5.9C603,57.85,601,56,601,54.24c0-2.29,1.8-3.27,4.34-3.27a40.12,40.12,0,0,0,7-.41,7.35,7.35,0,0,0,.17-1.4c0-4.34-2.71-6.88-2.87-10.4a49.71,49.71,0,0,1-5,6.47,1.43,1.43,0,0,1-.82.41,1,1,0,0,1-.9-.82,1.82,1.82,0,0,1,.41-.82,57.4,57.4,0,0,0,7.05-9.91c1.39-2.54,2.78-4.59,3.77-4.59a1.89,1.89,0,0,1,1.63,1.64c0,.9-3.52,3.6-3.52,6.72,0,3.68,2.79,6,2.79,11.39A2.63,2.63,0,0,1,614.92,50.07Zm-3.28,2.45c-4.76.58-8.28-.08-8.28,1.56,0,.9.82,1.72,2.79,1.72A6.42,6.42,0,0,0,611.64,52.52Z"/><path class="cls-1" d="M639.82,30.15a.83.83,0,0,1-.9-.82c0-.82,1.47-2.13,4.83-2.13a46.81,46.81,0,0,1,5.41.41,150.77,150.77,0,0,1,9.59-11.88c.49-.57.9-.82,1.23-.82a1.56,1.56,0,0,1,1.39,1.48c0,.41-.24.57-.9,1.39C659.4,19,655.8,23,652,28a59.27,59.27,0,0,0,7.87.9c1,0,1.14.33,1.14.66,0,.57-1,1.39-1.72,1.39a87.89,87.89,0,0,1-8.76-.9c-4.1,5.82-7.79,12.87-7.79,18.85a2.18,2.18,0,0,0,2.38,2.37c5.73,0,12.29-7.29,12.29-7.29s.41-.49.74-.49a1,1,0,0,1,1,.9,1.82,1.82,0,0,1-.41.82s-7.62,8.44-14.34,8.44a4.41,4.41,0,0,1-4.67-4.59c0-5.82,3.77-13.11,8-19.42-1.64-.16-3.2-.33-4.43-.33C640.89,29.33,640.39,30.15,639.82,30.15Z"/><path class="cls-1" d="M681.69,36.46c0,.25-.16.49-.57,1a72.41,72.41,0,0,0-5.33,7.62,5.9,5.9,0,0,0-1,3.19,2.58,2.58,0,0,0,2.78,2.62c5.41,0,11.15-6.88,11.15-6.88s.41-.49.82-.49a1,1,0,0,1,.9.9,1.82,1.82,0,0,1-.41.82s-7.29,8-12.7,8a5,5,0,0,1-5.16-4.75c-2,1.88-7.21,7.62-12.05,7.62a4.9,4.9,0,0,1-5.24-4.84c0-6.8,10.16-19.58,11.88-19.58A1.65,1.65,0,0,1,668.25,33c0,.25-.24.57-.65,1-2,2.14-9.59,10.9-9.59,17a2.42,2.42,0,0,0,2.54,2.7c3.85,0,8.52-4.83,12.37-9.5,2.63-3.12,4.59-6.15,6.15-8,.57-.66.9-1,1.23-1A1.35,1.35,0,0,1,681.69,36.46Z"/><path class="cls-1" d="M704.71,35.4c.91.41,1.48.9,1.48,1.72,0,3.52-7.13,8.6-7.13,13.35a2,2,0,0,0,2.21,2.13c3.85,0,8.61-3.85,12.87-8.6,0,0,.41-.49.82-.49a1,1,0,0,1,.9.9,1.82,1.82,0,0,1-.41.82c-4.59,5-10.33,9.51-14.67,9.51-2.46,0-4.42-1.56-4.42-4.1,0-5.08,6.63-10,6.63-12.87,0-.41-.41-.73-1-1.14-1.72-1.23-2.7-1.89-3.2-1.89-.32,0-.57.25-1.06.9-1.23,1.72-4.67,6.15-7.7,9.59a1.43,1.43,0,0,1-.82.41,1,1,0,0,1-.9-.82,1.82,1.82,0,0,1,.41-.82,82.06,82.06,0,0,0,8.52-11.8c1-2,2.37-7.21,4.42-7.21a2.18,2.18,0,0,1,1.8,1.72c0,1.23-3.52,4.18-3.52,5.41C700,32.61,703.07,34.5,704.71,35.4Z"/><path class="cls-1" d="M734.54,53.67c-2.71,0-4.59-1.64-4.59-4,0-4.92,7.87-10.08,7.87-13.69,0-.41-.33-1.06-1.32-1.06-5.24,0-15.81,8.35-24.41,18.43a2,2,0,0,1-1.81,1A1.34,1.34,0,0,1,709,53.1c0-.66,1-2.63,2.71-5.58,3.11-5.32,9.5-14.25,10.81-14.25a1.35,1.35,0,0,1,1.4,1.31c0,.24-.25.57-.82,1.23a84.56,84.56,0,0,0-8.69,11.8C721,40.4,731.26,32.45,737,32.45A3.61,3.61,0,0,1,740.77,36c0,4.51-7.71,9.67-7.71,13.44,0,1.23.74,1.88,2.22,1.88,6.3,0,12.29-7.29,12.29-7.29s.41-.49.73-.49a1.05,1.05,0,0,1,1,.9,1.82,1.82,0,0,1-.41.82S741.26,53.67,734.54,53.67Z"/><path class="cls-1" d="M767.15,54a4.56,4.56,0,0,1-4.92-4.75c0-5.58,8.44-16.64,9.83-16.64a1.17,1.17,0,0,1,1.31,1.23,2,2,0,0,1-.49,1c-2,2.38-7.86,9.84-7.86,14.43a2.47,2.47,0,0,0,2.7,2.62c5.49,0,12.45-7.87,12.45-7.87s.41-.49.74-.49a1.06,1.06,0,0,1,1,.9,1.82,1.82,0,0,1-.41.82S773.46,54,767.15,54Zm14-31.3c0,1.47-1.39,3.52-2.71,3.52a1.48,1.48,0,0,1-1.55-1.47c0-1.4,1.31-3.45,2.7-3.45A1.43,1.43,0,0,1,781.16,22.7Z"/><path class="cls-1" d="M800.58,53.67c-2.71,0-4.59-1.64-4.59-4,0-4.92,7.86-10.08,7.86-13.69,0-.41-.32-1.06-1.31-1.06-5.24,0-15.81,8.35-24.42,18.43a2,2,0,0,1-1.8,1A1.34,1.34,0,0,1,775,53.1c0-.66,1-2.63,2.71-5.58,3.11-5.32,9.5-14.25,10.81-14.25a1.34,1.34,0,0,1,1.39,1.31c0,.24-.24.57-.82,1.23a85.38,85.38,0,0,0-8.68,11.8C787.06,40.4,797.3,32.45,803,32.45A3.6,3.6,0,0,1,806.8,36c0,4.51-7.7,9.67-7.7,13.44,0,1.23.74,1.88,2.21,1.88,6.31,0,12.29-7.29,12.29-7.29s.41-.49.74-.49a1.06,1.06,0,0,1,1,.9,1.82,1.82,0,0,1-.41.82S807.3,53.67,800.58,53.67Z"/><path class="cls-1" d="M812.54,30.15a.83.83,0,0,1-.9-.82c0-.82,1.47-2.13,4.83-2.13a47,47,0,0,1,5.41.41c4.18-5.81,8.36-10.49,9.58-11.88.5-.57.91-.82,1.23-.82a1.56,1.56,0,0,1,1.4,1.48c0,.41-.25.57-.9,1.39C832.12,19,828.52,23,824.75,28a59.33,59.33,0,0,0,7.86.9c1,0,1.15.33,1.15.66,0,.57-1,1.39-1.72,1.39-2.13,0-5.49-.49-8.77-.9-4.1,5.82-7.78,12.87-7.78,18.85a2.18,2.18,0,0,0,2.37,2.37c5.74,0,12.29-7.29,12.29-7.29s.41-.49.74-.49a1,1,0,0,1,1,.9,1.82,1.82,0,0,1-.41.82s-7.62,8.44-14.33,8.44a4.41,4.41,0,0,1-4.68-4.59c0-5.82,3.77-13.11,8-19.42-1.63-.16-3.19-.33-4.42-.33C813.6,29.33,813.11,30.15,812.54,30.15Z"/><path class="cls-1" d="M856.05,44s.41-.49.82-.49a1.05,1.05,0,0,1,.9.9,1.82,1.82,0,0,1-.41.82c-4.18,4.43-7.46,5.57-12,5.57a8.11,8.11,0,0,1-1.39-.08c-2.79,2.29-6,3.69-8.6,3.69A6,6,0,0,1,829,48.18c0-3.19,1.63-6.64,4.09-9.42.08-5.41,5.25-10.33,11.23-10.33,5.08,0,7.54,3.44,7.54,8s-2.46,9-5.74,12.37h.08C849.82,48.75,853,47.36,856.05,44ZM841,49.82a13.72,13.72,0,0,1-7.29-7.54A13.64,13.64,0,0,0,832,48.43,3.18,3.18,0,0,0,835.48,52,9.73,9.73,0,0,0,841,49.82Zm2-1.56c3.44-3,6.22-7.7,6.22-12,0-3-1.8-5.41-4.59-5.41a9.57,9.57,0,0,0-8.35,4.92,13.82,13.82,0,0,1,8.11-3.28c1.06,0,1.56.25,1.56.74,0,.65-.58.82-1.15.9a14,14,0,0,0-9.26,5.41A10.09,10.09,0,0,0,842.94,48.26Z"/><path class="cls-1" d="M871.37,30.15a.84.84,0,0,1-.91-.82c0-.82,1.48-2.13,4.84-2.13a47,47,0,0,1,5.41.41,151.48,151.48,0,0,1,9.58-11.88c.5-.57.9-.82,1.23-.82a1.57,1.57,0,0,1,1.4,1.48c0,.41-.25.57-.91,1.39C891,19,887.34,23,883.57,28a59.63,59.63,0,0,0,7.87.9c1,0,1.15.33,1.15.66,0,.57-1,1.39-1.72,1.39-2.13,0-5.49-.49-8.77-.9-4.1,5.82-7.78,12.87-7.78,18.85a2.17,2.17,0,0,0,2.37,2.37C882.43,51.29,889,44,889,44s.41-.49.74-.49a1,1,0,0,1,1,.9,1.82,1.82,0,0,1-.41.82s-7.62,8.44-14.34,8.44a4.41,4.41,0,0,1-4.67-4.59c0-5.82,3.77-13.11,8-19.42-1.64-.16-3.19-.33-4.42-.33C872.43,29.33,871.94,30.15,871.37,30.15Z"/><path class="cls-1" d="M892.18,54a4.56,4.56,0,0,1-4.92-4.75c0-5.58,8.44-16.64,9.83-16.64a1.17,1.17,0,0,1,1.31,1.23,2,2,0,0,1-.49,1c-2,2.38-7.86,9.84-7.86,14.43a2.47,2.47,0,0,0,2.7,2.62c5.49,0,12.46-7.87,12.46-7.87s.4-.49.73-.49a1.06,1.06,0,0,1,1,.9,1.82,1.82,0,0,1-.41.82S898.49,54,892.18,54Zm14-31.3c0,1.47-1.39,3.52-2.71,3.52a1.48,1.48,0,0,1-1.55-1.47c0-1.4,1.31-3.45,2.7-3.45A1.43,1.43,0,0,1,906.19,22.7Z"/><path class="cls-1" d="M942.9,53.67c-2.13,0-4.43-1.47-4.43-3.93,0-4,3.44-7.3,3.44-10.24,0-.5-.41-1-1.23-1-3.6,0-11.63,7-15.89,10.9-1.15,1.06-1.8,1.8-2.79,1.8a1.22,1.22,0,0,1-1.23-1.31c0-2.62,9.43-12.13,9.43-15,0-.82-.5-1.23-1.48-1.23-5.16,0-18,10.73-24.74,18.68-.91,1.06-1.15,1.56-2.3,1.56a1.58,1.58,0,0,1-1.39-1.48c0-.9,1.31-2.95,3.93-7.29,3.44-5.74,10.41-13.44,11.31-13.44a1.29,1.29,0,0,1,1.31,1.39c0,.33-.33.66-.82,1.15-2.87,3-4.92,4.59-11.23,14.26C911.43,41,923,31.3,929.13,31.3A3.81,3.81,0,0,1,933,35c0,3.19-5.57,8.44-7,10.81,2.54-2.37,10.49-9.66,15.32-9.66a3.34,3.34,0,0,1,3.36,3.19c0,3-3.36,7-3.36,10.24,0,1.15.74,2,2.29,2,5.9,0,12.21-7.54,12.21-7.54s.41-.49.82-.49a1,1,0,0,1,.9.9,1.82,1.82,0,0,1-.41.82S949.62,53.67,942.9,53.67Z"/><path class="cls-1" d="M962.64,55.64c-4.42,0-8-2.63-8-7.3,0-7.62,10.24-15.89,16.55-15.89,2.54,0,4.26,1.47,4.26,3.52,0,4.92-11,9.42-17.78,11.15a4.61,4.61,0,0,0-.16,1.47c0,2.87,2.13,4.67,5.16,4.67C972.47,53.26,980,44,980,44s.41-.49.82-.49a1,1,0,0,1,.9.9,1.82,1.82,0,0,1-.41.82S972.15,55.64,962.64,55.64Zm-4.26-10.9c6.23-1.64,14.59-5.57,14.59-9,0-.25-.25-1-1.48-1C967,34.74,960.76,39.66,958.38,44.74Z"/><path class="cls-1" d="M985.5,54.82c-3.6,0-6.23-2.38-6.23-6.39,0-13.69,18-38.84,25.65-38.84a3.29,3.29,0,0,1,3.52,3.44c0,6.14-15.56,22.12-25.89,31.63a7.41,7.41,0,0,0-.74,3.77c0,2.62,1.4,4,4.1,4,5.57,0,12.05-7.21,13.11-8.44,0,0,.41-.49.74-.49a1,1,0,0,1,1,.9,1.82,1.82,0,0,1-.41.82C999.18,46.54,991.4,54.82,985.5,54.82ZM983,41.38c8.93-8.11,23.11-23,23.11-28.68a1,1,0,0,0-1.07-1C1000.17,11.72,987.3,28.19,983,41.38Z"/><path class="cls-1" d="M1005.82,55.64c-4.42,0-8-2.63-8-7.3,0-7.62,10.24-15.89,16.55-15.89,2.54,0,4.26,1.47,4.26,3.52,0,4.92-11,9.42-17.78,11.15a4.61,4.61,0,0,0-.16,1.47c0,2.87,2.13,4.67,5.16,4.67,9.83,0,17.37-9.26,17.37-9.26s.41-.49.82-.49a1,1,0,0,1,.9.9,1.82,1.82,0,0,1-.41.82S1015.33,55.64,1005.82,55.64Zm-4.26-10.9c6.23-1.64,14.58-5.57,14.58-9,0-.25-.24-1-1.47-1C1010.16,34.74,1003.94,39.66,1001.56,44.74Z"/><path class="cls-1" d="M1034.83,50.07a18.6,18.6,0,0,0,9.58-6.07s.41-.49.74-.49a1,1,0,0,1,1,.9,1.82,1.82,0,0,1-.41.82,20.52,20.52,0,0,1-11.3,6.72,9,9,0,0,1-8.44,5.9c-3.12,0-5.08-1.89-5.08-3.61,0-2.29,1.8-3.27,4.34-3.27a40.12,40.12,0,0,0,7-.41,6.62,6.62,0,0,0,.17-1.4c0-4.34-2.71-6.88-2.87-10.4a49.71,49.71,0,0,1-5,6.47,1.43,1.43,0,0,1-.82.41,1,1,0,0,1-.9-.82,1.82,1.82,0,0,1,.41-.82,57.4,57.4,0,0,0,7-9.91c1.39-2.54,2.78-4.59,3.77-4.59a1.89,1.89,0,0,1,1.63,1.64c0,.9-3.52,3.6-3.52,6.72,0,3.68,2.79,6,2.79,11.39A2.63,2.63,0,0,1,1034.83,50.07Zm-3.28,2.45c-4.75.58-8.28-.08-8.28,1.56,0,.9.82,1.72,2.79,1.72A6.42,6.42,0,0,0,1031.55,52.52Z"/><path class="cls-1" d="M1056.05,50.07a18.6,18.6,0,0,0,9.58-6.07s.41-.49.74-.49a1,1,0,0,1,1,.9,1.82,1.82,0,0,1-.41.82,20.52,20.52,0,0,1-11.3,6.72,9,9,0,0,1-8.44,5.9c-3.12,0-5.08-1.89-5.08-3.61,0-2.29,1.8-3.27,4.34-3.27a40.12,40.12,0,0,0,7-.41,6.62,6.62,0,0,0,.17-1.4c0-4.34-2.71-6.88-2.87-10.4a49.71,49.71,0,0,1-5,6.47,1.43,1.43,0,0,1-.82.41,1,1,0,0,1-.9-.82,1.82,1.82,0,0,1,.41-.82,57.4,57.4,0,0,0,7-9.91c1.39-2.54,2.78-4.59,3.77-4.59a1.89,1.89,0,0,1,1.63,1.64c0,.9-3.52,3.6-3.52,6.72,0,3.68,2.79,6,2.79,11.39A2.63,2.63,0,0,1,1056.05,50.07Zm-3.28,2.45c-4.75.58-8.28-.08-8.28,1.56,0,.9.82,1.72,2.79,1.72A6.42,6.42,0,0,0,1052.77,52.52Z"/><path class="cls-1" d="M1119.71,53.67c-2.13,0-4.43-1.47-4.43-3.93,0-4,3.45-7.3,3.45-10.24,0-.5-.41-1-1.23-1-3.61,0-11.64,7-15.9,10.9-1.15,1.06-1.8,1.8-2.79,1.8a1.22,1.22,0,0,1-1.22-1.31c0-2.62,9.42-12.13,9.42-15,0-.82-.49-1.23-1.48-1.23-5.16,0-18,10.73-24.74,18.68-.9,1.06-1.15,1.56-2.3,1.56a1.58,1.58,0,0,1-1.39-1.48c0-.9,1.31-2.95,3.93-7.29,3.45-5.74,10.41-13.44,11.31-13.44a1.28,1.28,0,0,1,1.31,1.39c0,.33-.33.66-.82,1.15-2.86,3-4.91,4.59-11.22,14.26,6.63-7.54,18.19-17.21,24.33-17.21a3.81,3.81,0,0,1,3.85,3.69c0,3.19-5.57,8.44-7,10.81,2.54-2.37,10.49-9.66,15.32-9.66a3.34,3.34,0,0,1,3.36,3.19c0,3-3.36,7-3.36,10.24,0,1.15.74,2,2.3,2,5.9,0,12.21-7.54,12.21-7.54s.41-.49.82-.49a1.05,1.05,0,0,1,.9.9,1.82,1.82,0,0,1-.41.82S1126.43,53.67,1119.71,53.67Z"/><path class="cls-1" d="M1139.45,55.64c-4.42,0-8-2.63-8-7.3,0-7.62,10.25-15.89,16.56-15.89,2.54,0,4.26,1.47,4.26,3.52,0,4.92-11,9.42-17.78,11.15a4.35,4.35,0,0,0-.17,1.47c0,2.87,2.13,4.67,5.16,4.67,9.84,0,17.37-9.26,17.37-9.26s.41-.49.82-.49a1,1,0,0,1,.91.9,1.82,1.82,0,0,1-.41.82S1149,55.64,1139.45,55.64Zm-4.26-10.9c6.23-1.64,14.59-5.57,14.59-9,0-.25-.25-1-1.48-1C1143.8,34.74,1137.57,39.66,1135.19,44.74Z"/><path class="cls-1" d="M1194.52,53.67c-2.13,0-4.43-1.47-4.43-3.93,0-4,3.44-7.3,3.44-10.24,0-.5-.41-1-1.23-1-3.6,0-11.63,7-15.89,10.9-1.15,1.06-1.81,1.8-2.79,1.8a1.22,1.22,0,0,1-1.23-1.31c0-2.62,9.43-12.13,9.43-15,0-.82-.5-1.23-1.48-1.23-5.16,0-18,10.73-24.75,18.68-.9,1.06-1.14,1.56-2.29,1.56a1.58,1.58,0,0,1-1.39-1.48c0-.9,1.31-2.95,3.93-7.29,3.44-5.74,10.41-13.44,11.31-13.44a1.29,1.29,0,0,1,1.31,1.39c0,.33-.33.66-.82,1.15-2.87,3-4.92,4.59-11.23,14.26,6.64-7.54,18.19-17.21,24.34-17.21A3.81,3.81,0,0,1,1184.6,35c0,3.19-5.57,8.44-7,10.81,2.54-2.37,10.48-9.66,15.32-9.66a3.34,3.34,0,0,1,3.36,3.19c0,3-3.36,7-3.36,10.24,0,1.15.74,2,2.29,2,5.9,0,12.21-7.54,12.21-7.54s.41-.49.82-.49a1,1,0,0,1,.9.9,1.82,1.82,0,0,1-.41.82S1201.23,53.67,1194.52,53.67Z"/><path class="cls-1" d="M1222.62,49.49c-3.12,2.95-6.8,4.92-9.92,4.92a6,6,0,0,1-6.39-6.23c0-3.19,1.64-6.64,4.1-9.42.08-5.41,5.24-10.33,11.22-10.33,5.08,0,7.54,3.44,7.54,8,0,3.85-1.8,7.7-4.42,10.9,5.32-1.23,9.59-7.13,13.44-15.08,1-2,2.37-7.21,4.42-7.21a2.18,2.18,0,0,1,1.8,1.72c0,1.23-3.52,4.18-3.52,5.41,0,.49,3.11,2.38,4.75,3.28.9.41,1.48.9,1.48,1.72,0,3.52-7.13,8.6-7.13,13.35a2,2,0,0,0,2.21,2.13c3.85,0,8.61-3.85,12.87-8.6,0,0,.41-.49.82-.49a1,1,0,0,1,.9.9,1.82,1.82,0,0,1-.41.82c-4.59,5-10.33,9.51-14.67,9.51-2.46,0-4.42-1.56-4.42-4.1,0-5.08,6.63-10,6.63-12.87,0-.41-.41-.73-1-1.14-1.72-1.23-2.79-1.89-3.28-1.89-.24,0-.41.08-.82.66C1234.91,42.36,1230,49.33,1222.62,49.49Zm-3.36-.41c-3.53-.9-7-3.19-8.28-6.8a12.57,12.57,0,0,0-1.72,6.15,3.19,3.19,0,0,0,3.53,3.52C1214.75,52,1217.05,50.88,1219.26,49.08Zm1.8-1.64c3-3,5.41-7.21,5.41-11.14,0-3-1.8-5.41-4.59-5.41a9.59,9.59,0,0,0-8.36,4.92,13.84,13.84,0,0,1,8.11-3.28c1.07,0,1.56.25,1.56.74,0,.65-.57.82-1.15.9a14,14,0,0,0-9.25,5.41C1213.11,44.58,1216.72,47,1221.06,47.44Z"/><path class="cls-1" d="M1258.26,54a4.56,4.56,0,0,1-4.92-4.75c0-5.58,8.44-16.64,9.84-16.64a1.18,1.18,0,0,1,1.31,1.23,2.09,2.09,0,0,1-.5,1c-2,2.38-7.86,9.84-7.86,14.43a2.47,2.47,0,0,0,2.7,2.62c5.49,0,12.46-7.87,12.46-7.87s.41-.49.73-.49a1.05,1.05,0,0,1,1,.9,1.82,1.82,0,0,1-.41.82S1264.57,54,1258.26,54Zm14-31.3c0,1.47-1.39,3.52-2.7,3.52a1.49,1.49,0,0,1-1.56-1.47c0-1.4,1.31-3.45,2.7-3.45A1.43,1.43,0,0,1,1272.27,22.7Z"/><path class="cls-1" d="M1278.09,55.64c-4.43,0-8-2.63-8-7.3,0-7.62,10.24-15.89,16.55-15.89,2.54,0,4.26,1.47,4.26,3.52,0,4.92-11,9.42-17.78,11.15a4.35,4.35,0,0,0-.17,1.47c0,2.87,2.14,4.67,5.17,4.67,9.83,0,17.37-9.26,17.37-9.26s.41-.49.82-.49a1,1,0,0,1,.9.9,1.82,1.82,0,0,1-.41.82S1287.59,55.64,1278.09,55.64Zm-4.26-10.9c6.22-1.64,14.58-5.57,14.58-9,0-.25-.24-1-1.47-1C1282.43,34.74,1276.2,39.66,1273.83,44.74Z"/><path class="cls-1" d="M1307.09,50.07a18.58,18.58,0,0,0,9.59-6.07s.41-.49.74-.49a1,1,0,0,1,1,.9,1.82,1.82,0,0,1-.41.82A20.54,20.54,0,0,1,1306.68,52a9,9,0,0,1-8.44,5.9c-3.11,0-5.08-1.89-5.08-3.61,0-2.29,1.81-3.27,4.35-3.27a40.18,40.18,0,0,0,7-.41,7.38,7.38,0,0,0,.16-1.4c0-4.34-2.7-6.88-2.86-10.4a49.71,49.71,0,0,1-5,6.47,1.43,1.43,0,0,1-.82.41,1,1,0,0,1-.9-.82,1.82,1.82,0,0,1,.41-.82,56.73,56.73,0,0,0,7-9.91c1.4-2.54,2.79-4.59,3.77-4.59a1.9,1.9,0,0,1,1.64,1.64c0,.9-3.52,3.6-3.52,6.72,0,3.68,2.78,6,2.78,11.39A2.63,2.63,0,0,1,1307.09,50.07Zm-3.28,2.45c-4.75.58-8.27-.08-8.27,1.56,0,.9.82,1.72,2.78,1.72A6.39,6.39,0,0,0,1303.81,52.52Z"/><line class="cls-2" x1="0.25" y1="100.32" x2="1360.89" y2="100.32"/><line class="cls-3" x1="0.25" y1="100.32" x2="1343.06" y2="100.32"/><path class="cls-2" d="M1339.84,80.09c5,8.44,12.78,15.07,21.05,20.23a64.61,64.61,0,0,0-21.05,20.23h-5a70,70,0,0,1,19.33-20.23,71.1,71.1,0,0,1-19.41-20.23Z"/><path class="cls-2" d="M1327.81,80.09c5,8.44,12.77,15.07,21,20.23a64.48,64.48,0,0,0-21,20.23h-5a70,70,0,0,1,19.32-20.23,71.38,71.38,0,0,1-19.41-20.23Z"/></g></g></svg>