<svg xmlns="http://www.w3.org/2000/svg" viewBox="0 0 1342.19 713.44"><defs><style>.cls-1{fill:#fff;opacity:0.25;}.cls-2{fill:#4d4547;}</style></defs><g id="Layer_2" data-name="Layer 2"><g id="Layer_2-2" data-name="Layer 2"><polygon class="cls-1" points="1341.44 533.6 1303.54 524.9 1304.58 707.46 65.08 705.77 65.08 518.18 65.65 517.64 0 535.87 0 516.57 287.86 447.24 288.04 447.24 288.04 304.83 266.75 320.14 267.17 297.5 683.75 0 1101.1 295.82 1101.1 319.91 1079.99 303.68 1079.3 303.68 1080.68 455.18 1342.19 517.13 1341.44 533.6"/><polygon class="cls-2" points="1263.32 551.25 1229.84 543.14 1230.76 713.44 135.7 711.87 135.7 536.87 136.2 536.37 78.2 553.37 78.2 535.37 332.52 470.69 332.67 470.69 332.67 337.84 313.87 352.13 314.24 331.01 682.27 53.48 1050.99 329.44 1050.99 351.91 1032.34 336.77 1031.73 336.77 1032.95 478.1 1263.99 535.89 1263.32 551.25"/></g></g></svg>